<svg id="visual" viewBox="0 0 1920 1080" width="1920" height="1080" xmlns="http://www.w3.org/2000/svg" xmlns:xlink="http://www.w3.org/1999/xlink" version="1.1"><rect width="1920" height="1080" fill="#001829"></rect><g><g transform="translate(147 150)"><path d="M0 -333.8L236 -236L333.8 0L236 236L0 333.8L-236 236L-333.8 0L-236 -236Z" fill="none" stroke="#297EA6" stroke-width="2"></path></g><g transform="translate(1584 582)"><path d="M0 -258L182.4 -182.4L258 0L182.4 182.4L0 258L-182.4 182.4L-258 0L-182.4 -182.4Z" fill="none" stroke="#297EA6" stroke-width="2"></path></g><g transform="translate(355 1078)"><path d="M0 -178L125.9 -125.9L178 0L125.9 125.9L0 178L-125.9 125.9L-178 0L-125.9 -125.9Z" fill="none" stroke="#297EA6" stroke-width="2"></path></g><g transform="translate(890 483)"><path d="M0 -211L149.2 -149.2L211 0L149.2 149.2L0 211L-149.2 149.2L-211 0L-149.2 -149.2Z" stroke="#297EA6" fill="none" stroke-width="2"></path></g></g></svg>